<!-- <svg width="32" height="32" xmlns="http://www.w3.org/2000/svg"><path d="M31.952 14.751a260.51 260.51 0 00-4.359-4.407C23.932 6.734 20.16 3.182 16.171 0c1.634.017 3.21.28 4.692.751 3.487 3.114 6.846 6.398 10.163 9.737.493 1.346.811 2.776.926 4.262zm-1.388 7.883c-2.496-2.597-5.051-5.12-7.737-7.471-3.706-3.246-10.693-9.81-15.736-7.418-4.552 2.158-4.717 10.543-4.96 16.238A15.926 15.926 0 010 16C0 9.799 3.528 4.421 8.686 1.766c1.82.593 3.593 1.675 5.038 2.587 6.569 4.14 12.29 9.71 17.792 15.57-.237.94-.557 1.846-.952 2.711zm-4.505 5.81a56.161 56.161 0 00-1.007-.823c-2.574-2.054-6.087-4.805-9.394-4.044-3.022.695-4.264 4.267-4.97 7.52a15.945 15.945 0 01-3.665-1.85c.366-3.242.89-6.675 2.405-9.364 2.315-4.107 6.287-3.072 9.613-1.132 3.36 1.96 6.417 4.572 9.313 7.417a16.097 16.097 0 01-2.295 2.275z" fill="#5658DD" fill-rule="nonzero"/></svg> -->
<svg version="1.0" width="32" height="32" xmlns="http://www.w3.org/2000/svg"
 width="1440.000000pt" height="1002.000000pt" viewBox="0 0 1440.000000 1002.000000"
 preserveAspectRatio="xMidYMid meet">

<g transform="translate(0.000000,1002.000000) scale(0.100000,-0.100000)"
fill="#000000" stroke="none">
<path d="M5345 9121 c-6 -5 -32 -17 -60 -26 -27 -9 -63 -22 -80 -30 -16 -7
-70 -30 -120 -50 -130 -54 -386 -184 -447 -226 -14 -11 -29 -19 -33 -19 -3 0
-32 -17 -63 -37 -32 -21 -65 -42 -73 -48 -269 -168 -689 -544 -895 -800 -155
-193 -298 -393 -364 -510 -11 -19 -29 -51 -40 -70 -44 -77 -59 -103 -67 -121
-6 -11 -16 -30 -23 -44 -30 -55 -60 -121 -112 -245 -67 -159 -79 -195 -71
-208 3 -6 1 -7 -5 -3 -7 4 -12 3 -12 -2 0 -6 7 -13 16 -16 9 -3 12 -11 8 -18
-5 -9 -3 -9 9 1 9 7 17 21 16 30 0 12 -2 11 -9 -4 -8 -19 -9 -19 -9 2 -1 20 3
22 32 16 17 -3 29 -3 25 1 -3 4 14 26 38 49 24 23 44 50 44 60 0 10 4 15 10
12 5 -3 8 0 5 7 -3 7 8 22 24 33 16 10 44 38 63 62 18 23 38 42 44 43 6 0 18
8 25 17 9 11 10 14 2 9 -9 -5 -11 -2 -7 9 4 9 9 14 11 11 3 -2 20 12 40 31 26
28 31 38 21 45 -10 7 -10 8 2 7 21 -3 51 11 45 21 -3 5 4 11 15 15 11 3 20 13
20 21 0 8 7 14 16 14 10 0 14 6 10 15 -3 8 -1 15 5 15 6 0 9 7 5 15 -3 9 0 15
10 15 8 0 17 7 20 15 3 8 14 17 25 20 10 4 19 15 19 26 0 11 7 22 15 25 8 4
15 11 15 17 0 19 31 46 47 40 10 -4 14 0 11 12 -2 13 5 21 20 24 13 3 24 11
25 16 1 6 5 9 10 7 4 -1 7 4 7 12 0 18 27 29 34 13 3 -9 5 -8 5 1 1 13 45 62
56 62 3 0 32 26 64 58 31 31 77 74 102 94 25 21 70 61 101 90 76 71 85 78 101
78 16 0 98 79 237 230 54 58 187 195 297 305 109 110 205 215 212 233 7 17 17
29 22 26 5 -3 9 2 9 10 0 14 24 31 79 56 15 7 21 16 17 26 -3 8 -2 13 3 10 5
-3 19 8 31 24 12 16 26 28 30 25 9 -5 70 60 70 75 0 5 18 27 41 48 22 22 46
50 53 63 7 13 18 23 24 22 7 -2 9 4 5 14 -5 12 -2 15 8 11 16 -6 41 16 31 28
-4 4 -2 4 4 1 13 -7 37 16 29 26 -3 4 -2 5 2 2 3 -3 13 1 21 8 13 10 14 9 7
-2 -6 -10 -4 -12 4 -7 7 5 10 14 7 22 -3 8 0 11 8 8 8 -3 17 0 21 5 3 6 11 8
17 5 6 -4 8 -2 4 4 -3 5 0 13 6 15 7 3 2 6 -12 6 -15 1 -30 -3 -35 -8z"/>
<path d="M7755 8953 c-108 -6 -337 -33 -490 -59 -695 -115 -1291 -371 -1778
-763 -119 -97 -264 -237 -255 -247 3 -2 18 2 34 10 73 38 335 156 346 156 6 0
29 9 52 19 64 30 281 93 446 130 298 67 702 86 995 48 271 -36 537 -100 707
-171 11 -5 25 3 47 26 37 40 335 414 413 518 31 42 63 82 72 89 9 7 16 19 16
26 0 7 10 20 23 29 21 16 21 17 1 13 -11 -2 -29 2 -40 10 -18 14 -18 15 4 8
17 -5 22 -2 22 10 0 25 31 86 40 80 12 -8 38 5 44 21 4 11 2 12 -14 4 -24 -13
-30 -13 -30 1 0 5 5 7 10 4 6 -3 10 1 10 11 0 11 -6 15 -19 11 -13 -3 -18 -1
-14 9 4 11 -47 13 -289 12 -161 -1 -320 -3 -353 -5z"/>
<path d="M8515 8939 c-9 -27 -4 -30 18 -9 15 15 16 18 3 23 -9 4 -17 -2 -21
-14z"/>
<path d="M8480 8930 c0 -5 5 -10 10 -10 6 0 10 5 10 10 0 6 -4 10 -10 10 -5 0
-10 -4 -10 -10z"/>
<path d="M8463 8873 c-15 -5 -17 -23 -4 -23 5 0 11 7 15 15 3 8 4 15 3 14 -1
0 -8 -3 -14 -6z"/>
<path d="M8390 8811 c0 -6 4 -13 10 -16 6 -3 7 1 4 9 -7 18 -14 21 -14 7z"/>
<path d="M4679 8313 c-13 -16 -12 -17 4 -4 9 7 17 15 17 17 0 8 -8 3 -21 -13z"/>
<path d="M4515 8158 c-72 -73 -104 -108 -71 -78 96 90 213 210 205 210 -2 0
-63 -60 -134 -132z"/>
<path d="M9867 7841 c-9 -9 -39 -21 -65 -27 -26 -7 -63 -18 -82 -24 -48 -18
-63 -23 -75 -25 -5 -1 -13 -3 -17 -5 -5 -1 -11 -3 -15 -4 -34 -7 -110 -31
-119 -37 -6 -5 -34 -13 -62 -20 -29 -6 -52 -14 -52 -18 0 -4 -14 -8 -31 -9
-18 -1 -37 -6 -43 -9 -15 -10 -31 -13 -106 -18 -36 -2 -75 -6 -88 -9 -15 -3
-20 -1 -16 6 5 7 -2 9 -20 6 -14 -3 -26 -1 -26 3 0 20 -42 -11 -127 -95 -51
-50 -93 -95 -93 -101 0 -5 44 -55 98 -110 116 -120 254 -297 336 -429 39 -63
66 -96 77 -96 10 0 38 17 62 38 24 20 97 78 163 129 65 51 184 143 264 204 80
62 195 150 257 196 62 46 115 87 118 92 9 15 -255 354 -292 375 -12 6 -14 5
-7 -5 6 -11 5 -12 -7 -3 -10 8 -18 7 -32 -5z"/>
<path d="M5195 7840 c3 -5 8 -10 11 -10 2 0 4 5 4 10 0 6 -5 10 -11 10 -5 0
-7 -4 -4 -10z"/>
<path d="M9835 7840 c-3 -5 -1 -10 4 -10 6 0 11 5 11 10 0 6 -2 10 -4 10 -3 0
-8 -4 -11 -10z"/>
<path d="M4127 6939 c-319 -107 -566 -254 -798 -477 -264 -253 -455 -549 -584
-907 -84 -231 -135 -414 -135 -482 0 -80 12 -93 77 -82 26 5 89 16 138 25 50
9 113 20 140 25 28 5 82 13 120 18 39 6 101 17 140 25 38 9 87 16 108 16 20 0
70 8 110 19 39 10 110 21 156 25 46 3 90 11 97 17 10 8 14 39 14 113 1 318 76
716 190 1001 18 44 39 98 47 120 27 74 141 299 197 390 30 50 64 106 75 127
30 54 67 59 142 19 33 -17 64 -31 69 -31 11 0 298 -141 363 -179 20 -11 54
-31 75 -42 88 -50 271 -172 383 -256 317 -236 616 -549 803 -843 16 -25 37
-56 46 -70 25 -36 87 -153 132 -245 21 -44 43 -87 48 -96 34 -63 131 -340 181
-519 36 -129 79 -421 100 -685 12 -147 7 -435 -11 -605 -6 -52 -15 -144 -20
-205 -6 -60 -15 -132 -20 -160 -5 -27 -14 -81 -19 -120 -6 -38 -15 -92 -21
-120 -53 -259 -76 -360 -101 -442 -11 -34 -19 -70 -19 -80 0 -10 -8 -45 -19
-78 -10 -33 -29 -94 -41 -135 -12 -41 -28 -95 -37 -120 -8 -25 -17 -58 -20
-75 -2 -16 -13 -49 -24 -72 -10 -24 -19 -48 -19 -55 0 -14 -56 -180 -77 -226
-8 -18 -16 -41 -18 -52 -5 -24 11 -36 19 -15 3 8 15 15 26 15 11 0 23 7 26 15
4 8 10 13 14 10 5 -3 19 5 32 17 13 13 30 24 38 26 8 2 19 10 23 18 5 8 12 12
16 10 4 -3 16 9 26 25 11 16 26 27 33 24 7 -2 15 2 19 11 3 8 11 13 18 10 8
-3 16 2 19 11 4 9 14 13 26 10 11 -3 28 3 39 12 11 9 37 26 58 37 21 10 43 24
48 30 6 6 25 17 43 24 21 8 31 18 28 26 -3 9 1 14 12 14 9 0 34 9 55 20 21 11
42 18 47 15 6 -4 10 1 10 10 0 9 4 13 10 10 5 -3 25 5 42 18 18 14 41 23 51
22 9 -2 17 0 17 4 0 4 24 20 53 36 28 15 60 35 71 44 10 9 20 15 22 14 2 -2 6
-2 9 -2 33 9 73 27 79 38 4 5 15 8 26 6 11 -2 19 -1 17 3 -1 4 1 7 4 7 4 0 15
7 25 17 11 9 28 18 39 20 11 1 26 9 33 16 8 7 18 10 23 7 5 -4 9 -1 9 4 0 6 4
11 10 11 10 0 141 78 150 89 12 16 61 40 101 51 24 7 51 18 59 25 8 8 27 16
42 19 36 6 110 39 128 57 8 8 31 22 51 32 20 9 42 23 49 32 7 8 16 13 20 10 4
-3 13 2 20 10 7 8 20 15 29 16 13 0 14 2 1 6 -8 3 -18 11 -22 17 -6 8 -8 8 -8
-1 0 -6 -9 -9 -20 -6 -11 3 -20 1 -20 -4 0 -5 -23 -16 -51 -23 -27 -8 -52 -18
-55 -22 -3 -4 -16 -8 -29 -8 -13 0 -44 -9 -70 -20 -60 -26 -122 -27 -127 -2
-4 22 7 99 25 178 12 51 13 124 6 430 -11 539 -52 913 -145 1334 -71 320 -213
703 -365 983 -409 752 -1011 1252 -1839 1530 -280 94 -613 156 -923 170 -70 4
-91 0 -190 -34z"/>
<path d="M9768 5328 c5 -151 -10 -407 -34 -548 -9 -52 -20 -123 -24 -157 -5
-34 -16 -78 -25 -98 -8 -21 -15 -48 -15 -61 0 -13 -8 -47 -18 -76 -10 -29 -29
-84 -42 -123 -62 -188 -141 -367 -230 -520 -29 -49 -60 -103 -70 -120 -55 -96
-178 -263 -294 -398 -90 -106 -217 -237 -228 -237 -4 0 -25 -16 -45 -36 -21
-20 -54 -48 -73 -62 -19 -15 -51 -40 -71 -57 -61 -51 -77 -63 -100 -76 -13 -6
-32 -20 -43 -30 -11 -11 -24 -19 -28 -19 -5 0 -18 -9 -30 -20 -12 -11 -28 -20
-35 -20 -7 0 -13 -4 -13 -8 0 -5 -21 -20 -47 -33 -27 -13 -49 -27 -51 -31 -2
-5 -10 -8 -18 -8 -8 0 -25 -10 -40 -22 -14 -13 -31 -23 -37 -23 -7 0 -13 -9
-14 -20 l-3 -20 9 20 c7 14 10 15 10 5 1 -13 2 -13 11 0 5 8 10 11 10 5 0 -5
5 -3 10 5 8 12 10 12 10 -5 0 -15 2 -17 9 -6 5 7 14 11 20 7 5 -4 16 2 22 13
7 10 18 17 25 14 6 -2 15 1 20 8 4 8 3 10 -4 5 -19 -12 -14 -2 10 18 18 16 20
16 15 2 -5 -12 1 -11 26 6 17 13 35 28 39 33 4 6 8 6 8 2 0 -4 6 -2 14 5 8 7
11 18 8 23 -3 6 3 3 13 -5 10 -8 16 -10 12 -4 -7 12 25 25 68 30 10 1 21 7 23
13 2 6 12 11 22 11 11 0 23 7 28 16 5 9 11 15 13 13 2 -1 24 8 47 20 24 12 50
20 58 17 9 -3 12 -1 9 4 -4 6 14 19 39 30 25 10 46 24 46 30 0 5 7 10 15 10
17 0 52 18 73 38 7 6 19 12 26 12 8 0 19 7 26 15 7 8 16 12 21 9 5 -3 12 2 15
11 4 10 13 13 25 10 13 -4 19 -1 19 8 0 13 50 42 65 37 4 -1 15 8 25 20 10 12
25 22 32 24 25 3 37 17 31 33 -4 9 -2 14 3 10 6 -3 30 -1 55 5 24 6 50 11 57
11 6 0 12 5 12 10 0 6 3 8 6 4 4 -3 13 1 22 9 8 9 23 13 33 11 12 -3 19 0 19
8 0 8 8 12 20 10 11 -2 20 1 20 7 0 6 9 8 20 5 10 -3 21 0 23 6 3 10 20 15 85
21 18 2 40 10 49 17 9 8 18 12 20 9 3 -3 13 11 24 30 33 62 20 20 -27 -89
-262 -603 -752 -1095 -1433 -1435 -570 -286 -1332 -484 -2007 -521 -140 -8
-175 -20 -88 -30 32 -3 111 -16 174 -28 104 -19 150 -21 500 -20 234 0 407 4
440 11 30 6 93 16 140 22 47 6 121 18 165 27 44 8 100 19 125 23 25 5 90 20
145 34 233 62 450 136 605 208 36 17 90 41 120 55 556 251 1115 701 1517 1218
80 104 252 357 299 440 6 11 20 36 31 55 68 120 223 446 223 470 0 6 8 28 18
48 10 20 33 84 51 142 18 58 37 114 41 125 18 43 30 89 29 109 0 21 -1 21 -8
1 -8 -19 -9 -18 -13 5 -5 23 -5 23 -7 3 0 -13 -6 -23 -12 -23 -5 0 -7 5 -4 10
10 16 -5 33 -19 21 -7 -6 -18 -6 -26 -1 -8 5 -22 2 -37 -7 -14 -10 -23 -11
-23 -4 0 6 -14 11 -31 11 -16 0 -28 4 -25 9 3 4 -9 7 -27 5 -21 -3 -41 3 -59
16 -15 11 -32 20 -38 20 -11 0 -47 19 -70 37 -8 6 -18 12 -22 12 -23 3 -98 47
-98 58 0 7 -3 12 -7 11 -15 -3 -100 42 -127 67 -15 14 -33 22 -39 18 -7 -4 -6
1 2 10 12 15 12 17 -3 11 -9 -3 -16 -2 -16 4 0 5 -7 13 -16 16 -8 3 -12 2 -9
-4 3 -6 -10 0 -30 11 -20 12 -35 18 -34 13 1 -5 0 -43 -1 -84 -2 -41 -6 13
-10 120 -13 331 -58 745 -100 908 -10 41 -20 76 -23 78 -2 2 -2 -56 1 -128z
m-100 -2019 c-6 -16 -12 -28 -14 -26 -5 5 13 57 20 57 3 0 0 -14 -6 -31z"/>
<path d="M10703 4148 c-2 -16 1 -18 10 -9 7 7 8 14 1 21 -6 6 -10 2 -11 -12z"/>
<path d="M8048 2488 c-17 -15 -34 -53 -18 -43 6 3 10 13 10 21 0 8 7 14 16 14
9 0 12 -5 8 -12 -6 -10 -4 -10 7 0 19 18 -2 36 -23 20z"/>
<path d="M7995 2460 c5 -9 -16 -15 -38 -11 -5 1 -6 -3 -2 -9 6 -9 45 -15 45
-6 0 2 3 11 6 20 3 9 1 16 -6 16 -6 0 -8 -4 -5 -10z"/>
<path d="M6070 1364 c-6 -14 -10 -28 -10 -32 1 -10 24 31 26 46 4 21 -6 13
-16 -14z"/>
<path d="M6034 1271 c3 -5 0 -11 -8 -14 -17 -7 -26 -41 -15 -58 7 -12 10 -12
21 0 9 9 9 12 1 7 -8 -4 -7 2 2 21 18 33 19 53 4 53 -5 0 -8 -4 -5 -9z"/>
</g>
</svg>
